<svg width="145" height="40" viewBox="0 0 145 40" fill="none" xmlns="http://www.w3.org/2000/svg">
<rect width="145" height="40" fill="#1F1F1F"/>
<g clip-path="url(#clip0_362_6339)">
<path d="M38.6661 13.838L32.7974 17.2335L30.3967 18.6225L29.9292 18.8931L28.5501 19.6906C27.5224 20.2852 26.2537 20.2852 25.2258 19.6906L20.9785 17.2335L20.7108 17.0786C19.7818 16.5409 19.2102 15.5516 19.2102 14.4814V9.37256L26.888 13.8146C26.888 13.8146 26.8882 13.8146 26.8885 13.8148L26.8906 13.8161L26.8921 13.8169C26.9083 13.8273 26.9772 13.8692 27.0938 13.9336C27.0943 13.9339 27.0946 13.9341 27.0951 13.9344C28.1658 14.5251 33.2419 16.9812 38.6661 13.838Z" fill="url(#paint0_linear_362_6339)"/>
<path d="M31.045 25.8349L23.9148 29.9602L19.2102 32.6821V25.8443L20.4254 25.1413C24.2433 23.2027 27.5329 24.0366 29.4011 24.8838L30.3001 25.2888L31.0447 25.8347L31.045 25.8349Z" fill="url(#paint1_linear_362_6339)"/>
<path d="M38.6661 7V13.8376C33.2419 16.9807 28.1658 14.5244 27.0948 13.9337L27.0935 13.9329L26.8501 13.8126L26.8486 13.8118L26.8465 13.8105L26.8459 13.8103L34.7006 9.29417L38.6661 7Z" fill="url(#paint2_linear_362_6339)"/>
<path d="M38.6661 25.135V30.2439L31.045 25.8349L31.0447 25.8346C31.0264 25.8201 30.429 25.35 29.4011 24.8837C27.5331 24.0366 24.2436 23.2026 20.4254 25.1413L25.1358 22.4162L27.5365 21.0272L27.9813 20.7699L29.3831 19.9591C30.4107 19.3645 31.6797 19.3645 32.7074 19.9591L36.9547 22.4162L37.1655 22.5381C38.0942 23.0755 38.6661 24.0649 38.6661 25.135Z" fill="url(#paint3_linear_362_6339)"/>
</g>
<path d="M58.0631 28.5684L54.3135 23.2009L50.5383 28.5684H45.556L51.3858 19.965L45.6331 11.1047H50.8465L54.2879 16.4979L57.7292 11.1047H62.9426L57.1899 19.965L63.0454 28.5684H58.0631ZM78.5815 14.9827H73.0342V28.5684H68.694V14.9827H63.121V11.1047H78.5815V14.9827Z" fill="#FFBE40"/>
<path d="M87.089 15.9072V19.8622C85.0601 19.9393 83.776 20.4786 82.8001 21.4545V28.5684H78.6396V16.1127H82.8001V17.4481C83.9044 16.4979 85.2399 15.9072 87.089 15.9072ZM101.911 16.1127V28.5684H97.7509V27.7465C96.7493 28.517 95.6707 28.9536 94.3352 28.9536C91.1764 28.9536 89.0191 26.7706 89.0191 23.2265V16.1127H93.1796V22.5845C93.1796 24.3565 94.1041 25.204 95.4652 25.204C96.2357 25.204 97.0318 24.7675 97.7509 23.9713V16.1127H101.911ZM103.9 24.2795L107.598 24.3052C107.778 25.3838 108.677 25.8718 109.987 25.8718C111.091 25.8718 111.759 25.5379 111.759 24.9986C111.759 24.5877 111.374 24.2538 110.552 24.1254L108.035 23.6888C105.878 23.3293 104.388 22.1222 104.388 19.9393C104.388 17.3197 106.623 15.7788 109.936 15.7788C112.581 15.7788 115.586 16.8061 115.765 20.0934H112.067C111.99 19.1431 111.117 18.7065 109.961 18.7065C108.883 18.7065 108.395 19.1175 108.395 19.6054C108.395 20.0163 108.703 20.4015 109.679 20.5813L112.016 20.9665C114.353 21.4031 115.894 22.5331 115.894 24.7418C115.894 27.6181 113.3 28.9536 110.064 28.9536C106.802 28.9536 104.157 27.5925 103.9 24.2795ZM127.668 24.8188L128.131 28.3372C126.513 28.8509 125.588 28.9536 124.355 28.9536C121.351 28.9536 119.348 26.745 119.348 23.3806V19.6825H116.908V16.1127H119.348V11.8752H123.508V16.1127H127.745V19.6825H123.508V23.2522C123.508 24.5106 124.227 25.127 125.46 25.127C126.05 25.127 126.744 24.9986 127.668 24.8188Z" fill="#FDD711"/>
<defs>
<linearGradient id="paint0_linear_362_6339" x1="16.5837" y1="12.3508" x2="24.4428" y2="19.6965" gradientUnits="userSpaceOnUse">
<stop stop-color="#F7A000"/>
<stop offset="1" stop-color="#FFE115"/>
</linearGradient>
<linearGradient id="paint1_linear_362_6339" x1="36.8178" y1="30.1528" x2="26.3723" y2="17.9792" gradientUnits="userSpaceOnUse">
<stop stop-color="#F7A000"/>
<stop offset="1" stop-color="#FFE115"/>
</linearGradient>
<linearGradient id="paint2_linear_362_6339" x1="37.5173" y1="14.3318" x2="31.6226" y2="6.69175" gradientUnits="userSpaceOnUse">
<stop stop-color="#F7A000"/>
<stop offset="1" stop-color="#FFE115"/>
</linearGradient>
<linearGradient id="paint3_linear_362_6339" x1="23.685" y1="22.4677" x2="29.8958" y2="36.8888" gradientUnits="userSpaceOnUse">
<stop stop-color="#F7A000"/>
<stop offset="1" stop-color="#FFE115"/>
</linearGradient>
<clipPath id="clip0_362_6339">
<rect width="25.6818" height="25.6818" fill="white" transform="translate(16 7)"/>
</clipPath>
</defs>
</svg>
