<svg width="328" height="152" viewBox="0 0 328 152" fill="none" xmlns="http://www.w3.org/2000/svg">
<rect width="328" height="152" fill="#1F1F1F"/>
<g clip-path="url(#clip0_362_6339)">
<path d="M113.036 65.268L104.224 70.3668L100.619 72.4526L99.9166 72.8589L97.8457 74.0565C96.3025 74.9494 94.3974 74.9494 92.8538 74.0565L86.4759 70.3668L86.074 70.1342C84.6789 69.3268 83.8206 67.8412 83.8206 66.2342V58.5625L95.3498 65.2328C95.3498 65.2328 95.3502 65.2328 95.3506 65.2332L95.3537 65.2352L95.356 65.2363C95.3803 65.252 95.4838 65.3148 95.6589 65.4116C95.6597 65.412 95.6601 65.4123 95.6608 65.4127C97.2686 66.2997 104.891 69.9879 113.036 65.268Z" fill="url(#paint0_linear_362_6339)"/>
<path d="M101.592 83.2833L90.8852 89.4779L83.8206 93.5653V83.2973L85.6454 82.2418C91.3785 79.3306 96.3182 80.5829 99.1236 81.855L100.474 82.4633L101.592 83.2829L101.592 83.2833Z" fill="url(#paint1_linear_362_6339)"/>
<path d="M113.036 55V65.2675C104.891 69.9875 97.2687 66.2989 95.6605 65.4119L95.6585 65.4108L95.293 65.2301L95.2907 65.2289L95.2875 65.227L95.2867 65.2266L107.082 58.445L113.036 55Z" fill="url(#paint2_linear_362_6339)"/>
<path d="M113.036 82.2321V89.9037L101.592 83.283L101.592 83.2826C101.564 83.2607 100.667 82.5548 99.1236 81.8547C96.3186 80.5825 91.3789 79.3302 85.6454 82.2414L92.7187 78.1494L96.3237 76.0636L96.9917 75.6772L99.0966 74.4597C100.64 73.5668 102.545 73.5668 104.088 74.4597L110.466 78.1494L110.783 78.3324C112.178 79.1394 113.036 80.6251 113.036 82.2321Z" fill="url(#paint3_linear_362_6339)"/>
</g>
<path d="M142.164 86.8564L136.533 78.7964L130.864 86.8564H123.383L132.137 73.9372L123.498 60.6323H131.327L136.495 68.731L141.662 60.6323H149.491L140.852 73.9372L149.645 86.8564H142.164ZM172.975 66.4556H164.645V86.8564H158.127V66.4556H149.759V60.6323H172.975V66.4556Z" fill="#FFBE40"/>
<path d="M185.75 67.844V73.783C182.703 73.8987 180.775 74.7085 179.31 76.174V86.8564H173.062V68.1525H179.31V70.1579C180.968 68.731 182.973 67.844 185.75 67.844ZM208.008 68.1525V86.8564H201.761V85.6224C200.257 86.7793 198.637 87.4349 196.631 87.4349C191.888 87.4349 188.649 84.1569 188.649 78.835V68.1525H194.896V77.8708C194.896 80.5318 196.284 81.8044 198.328 81.8044C199.485 81.8044 200.681 81.1488 201.761 79.9533V68.1525H208.008ZM210.995 80.4161L216.548 80.4547C216.818 82.0744 218.168 82.8071 220.135 82.8071C221.793 82.8071 222.796 82.3058 222.796 81.4959C222.796 80.8789 222.217 80.3776 220.983 80.1847L217.204 79.5291C213.964 78.9892 211.727 77.1767 211.727 73.8987C211.727 69.965 215.083 67.6511 220.057 67.6511C224.03 67.6511 228.542 69.1937 228.812 74.13H223.258C223.143 72.7031 221.831 72.0475 220.096 72.0475C218.476 72.0475 217.744 72.6646 217.744 73.3973C217.744 74.0144 218.206 74.5928 219.672 74.8628L223.181 75.4412C226.691 76.0969 229.005 77.7937 229.005 81.1103C229.005 85.4295 225.109 87.4349 220.25 87.4349C215.353 87.4349 211.38 85.391 210.995 80.4161ZM246.686 81.226L247.38 86.5094C244.95 87.2807 243.562 87.4349 241.711 87.4349C237.199 87.4349 234.191 84.1183 234.191 79.0663V73.513H230.527V68.1525H234.191V61.7893H240.438V68.1525H246.802V73.513H240.438V78.8735C240.438 80.7632 241.518 81.6888 243.369 81.6888C244.256 81.6888 245.298 81.4959 246.686 81.226Z" fill="#FDD711"/>
<defs>
<linearGradient id="paint0_linear_362_6339" x1="79.8764" y1="63.0348" x2="91.678" y2="74.0653" gradientUnits="userSpaceOnUse">
<stop stop-color="#F7A000"/>
<stop offset="1" stop-color="#FFE115"/>
</linearGradient>
<linearGradient id="paint1_linear_362_6339" x1="110.261" y1="89.7672" x2="94.5755" y2="71.4868" gradientUnits="userSpaceOnUse">
<stop stop-color="#F7A000"/>
<stop offset="1" stop-color="#FFE115"/>
</linearGradient>
<linearGradient id="paint2_linear_362_6339" x1="111.311" y1="66.0097" x2="102.459" y2="54.5371" gradientUnits="userSpaceOnUse">
<stop stop-color="#F7A000"/>
<stop offset="1" stop-color="#FFE115"/>
</linearGradient>
<linearGradient id="paint3_linear_362_6339" x1="90.5402" y1="78.2267" x2="99.8664" y2="99.8819" gradientUnits="userSpaceOnUse">
<stop stop-color="#F7A000"/>
<stop offset="1" stop-color="#FFE115"/>
</linearGradient>
<clipPath id="clip0_362_6339">
<rect width="38.5648" height="38.5648" fill="white" transform="translate(79 55)"/>
</clipPath>
</defs>
</svg>
